<svg xmlns="http://www.w3.org/2000/svg" xmlns:xlink="http://www.w3.org/1999/xlink" width="500" zoomAndPan="magnify" viewBox="0 0 375 374.999991" height="500" preserveAspectRatio="xMidYMid meet" version="1.0"><defs><clipPath id="30fa058614"><path d="M 0 45.683594 L 374.910156 45.683594 L 374.910156 222 L 0 222 Z M 0 45.683594 " clip-rule="nonzero"/></clipPath><clipPath id="3a48712890"><path d="M 300 45.683594 L 352 45.683594 L 352 97 L 300 97 Z M 300 45.683594 " clip-rule="nonzero"/></clipPath><clipPath id="cf1b7438c8"><path d="M 23 45.683594 L 75 45.683594 L 75 97 L 23 97 Z M 23 45.683594 " clip-rule="nonzero"/></clipPath><clipPath id="782de34254"><path d="M 99 105 L 344 105 L 344 329.183594 L 99 329.183594 Z M 99 105 " clip-rule="nonzero"/></clipPath></defs><g clip-path="url(#30fa058614)"><path fill="#004b72" d="M 74.496094 126.53125 L 187.496094 45.792969 L 375.085938 179.957031 L 375.085938 221.449219 L 187.496094 87.511719 L 74.496094 168.25 Z M -0.0898438 179.957031 L 23.546875 162.996094 L 23.546875 204.640625 L -0.0898438 221.449219 Z M -0.0898438 179.957031 " fill-opacity="1" fill-rule="nonzero"/></g><g clip-path="url(#3a48712890)"><path fill="#004b72" d="M 351.222656 71.152344 C 351.222656 57.273438 339.96875 45.792969 326.085938 45.792969 C 312.207031 45.792969 300.726562 57.273438 300.726562 71.152344 C 300.726562 85.035156 312.207031 96.292969 326.085938 96.292969 C 339.96875 96.367188 351.222656 85.109375 351.222656 71.152344 Z M 351.222656 71.152344 " fill-opacity="1" fill-rule="nonzero"/></g><path fill="#004b72" d="M 75.171875 180.628906 L 187.496094 117.75 L 299.824219 180.628906 L 187.496094 101.394531 Z M 75.171875 180.628906 " fill-opacity="1" fill-rule="nonzero"/><path fill="#000000" d="M 157.257812 179.503906 L 184.421875 179.503906 L 184.421875 206.667969 L 157.257812 206.667969 Z M 157.257812 179.503906 " fill-opacity="1" fill-rule="nonzero"/><path fill="#000000" d="M 190.574219 179.503906 L 217.738281 179.503906 L 217.738281 206.667969 L 190.574219 206.667969 Z M 190.574219 179.503906 " fill-opacity="1" fill-rule="nonzero"/><path fill="#000000" d="M 157.257812 212.671875 L 184.421875 212.671875 L 184.421875 239.53125 L 157.257812 239.53125 Z M 157.257812 212.671875 " fill-opacity="1" fill-rule="nonzero"/><path fill="#000000" d="M 190.574219 212.671875 L 217.738281 212.671875 L 217.738281 239.53125 L 190.574219 239.53125 Z M 190.574219 212.671875 " fill-opacity="1" fill-rule="nonzero"/><g clip-path="url(#cf1b7438c8)"><path fill="#000000" d="M 74.269531 71.152344 C 74.269531 57.273438 63.015625 45.792969 48.90625 45.792969 C 35.027344 45.792969 23.769531 57.273438 23.769531 71.152344 C 23.769531 85.035156 35.027344 96.292969 48.90625 96.292969 C 63.015625 96.367188 74.269531 85.109375 74.269531 71.152344 Z M 74.269531 71.152344 " fill-opacity="1" fill-rule="nonzero"/></g><path fill="#000000" d="M 187.496094 295.210938 C 154.183594 295.210938 123.71875 281.554688 101.65625 259.492188 C 79.597656 237.65625 65.941406 207.191406 65.941406 173.878906 C 65.941406 138.984375 65.941406 162.171875 65.941406 127.28125 L 65.941406 122.851562 C 65.941406 113.550781 58.4375 106.046875 49.132812 106.046875 L 48.90625 106.046875 C 39.601562 106.046875 31.949219 113.550781 31.949219 122.851562 L 31.949219 127.28125 C 31.949219 160.820312 31.949219 136.132812 31.949219 169.675781 L 31.949219 173.878906 C 31.949219 216.496094 49.582031 255.515625 77.644531 283.578125 C 82.523438 288.457031 87.550781 292.882812 93.101562 297.011719 L 99.707031 298.359375 C 137.675781 306.089844 180.070312 307.664062 216.6875 293.933594 C 221.789062 292.132812 227.941406 289.28125 233.871094 285.980469 C 219.460938 291.832031 203.855469 295.210938 187.496094 295.210938 Z M 187.496094 295.210938 " fill-opacity="1" fill-rule="nonzero"/><g clip-path="url(#782de34254)"><path fill="#004b72" d="M 254.128906 275.101562 C 254.128906 275.101562 209.332031 323.648438 99.179688 301.585938 C 124.09375 318.996094 154.78125 329.199219 187.421875 329.199219 C 230.269531 329.199219 269.0625 311.792969 297.347656 283.503906 C 325.414062 255.441406 343.046875 216.421875 343.046875 173.800781 L 343.046875 169.601562 C 343.046875 136.058594 343.046875 160.746094 343.046875 127.207031 L 343.046875 122.777344 C 343.046875 113.472656 335.316406 105.96875 326.238281 105.96875 L 325.789062 105.96875 C 316.484375 105.96875 308.980469 113.472656 308.980469 122.777344 L 308.980469 127.207031 C 308.980469 162.097656 308.980469 138.910156 308.980469 173.800781 C 308.980469 207.117188 295.324219 237.582031 273.261719 259.417969 C 267.410156 265.34375 260.957031 270.671875 254.128906 275.101562 Z M 254.128906 275.101562 " fill-opacity="1" fill-rule="nonzero"/></g></svg>